<?xml version="1.0" ?><!DOCTYPE svg  PUBLIC '-//W3C//DTD SVG 1.1//EN'  'http://www.w3.org/Graphics/SVG/1.1/DTD/svg11.dtd'><svg height="32px" id="Layer_1" style="enable-background:new 0 0 32 32;" version="1.1" viewBox="0 0 32 32" width="32px" xml:space="preserve" xmlns="http://www.w3.org/2000/svg" xmlns:xlink="http://www.w3.org/1999/xlink"><path d="M4,13c0-0.551,0.448-1,1-1c0.553,0,1,0.449,1,1c0,0.552-0.447,1-1,1  C4.448,14,4,13.551,4,13L4,13z M8,13c0-0.551,0.448-1,1-1c0.553,0,1,0.449,1,1c0,0.552-0.447,1-1,1C8.448,14,8,13.551,8,13L8,13z   M4,21c0-0.553,0.448-1,1-1c0.553,0,1,0.447,1,1c0,0.552-0.447,1-1,1C4.448,22,4,21.552,4,21L4,21z M8,21c0-0.553,0.448-1,1-1  c0.553,0,1,0.447,1,1c0,0.552-0.447,1-1,1C8.448,22,8,21.552,8,21L8,21z M30.001,16v-6H1.999v6h12.015  c-0.464,0.616-0.863,1.283-1.176,2H1.999v6H12.2c0.142,0.697,0.359,1.364,0.638,2H1.999c-1.103,0-1.998-0.895-1.998-2V1.999  C0.001,0.896,0.896,0,1.999,0h28.002c1.103,0,1.998,0.896,1.998,1.999V22c0-2.254-0.753-4.328-2.013-6H30.001L30.001,16z   M30.001,1.999H1.999v6h28.002V1.999L30.001,1.999z M5,3.999c0.553,0,1,0.449,1,1c0,0.553-0.447,1-1,1C4.448,6,4,5.553,4,5  C4,4.448,4.448,3.999,5,3.999L5,3.999z M9,3.999c0.553,0,1,0.449,1,1c0,0.553-0.447,1-1,1C8.448,6,8,5.553,8,5  C8,4.448,8.448,3.999,9,3.999L9,3.999z M22,14c4.418,0,8.001,3.581,8.001,8c0,1.848-0.634,3.546-1.687,4.9l3.392,3.393l0,0  c0.183,0.181,0.293,0.431,0.293,0.706c0,0.554-0.446,1-0.998,1c-0.277,0-0.527-0.11-0.708-0.293l0,0L26.9,28.314  c-1.354,1.053-3.053,1.687-4.9,1.687c-4.419,0-8-3.583-8-8.001C14,17.581,17.581,14,22,14L22,14z M22,28  c3.313,0,6.001-2.687,6.001-6c0-3.314-2.688-6-6.001-6c-3.314,0-6,2.686-6,6C16,25.313,18.686,28,22,28L22,28z" style="fill-rule:evenodd;clip-rule:evenodd;"/></svg>