<?xml version="1.0" ?><!DOCTYPE svg  PUBLIC '-//W3C//DTD SVG 1.1//EN'  'http://www.w3.org/Graphics/SVG/1.1/DTD/svg11.dtd'><svg enable-background="new 0 0 128 128" id="Layer_1" version="1.1" viewBox="0 0 128 128" xml:space="preserve" xmlns="http://www.w3.org/2000/svg" xmlns:xlink="http://www.w3.org/1999/xlink"><path d="M76.3,113.1l-9,9c-0.4,0.4-0.9,0.6-1.4,0.6s-1.1-0.2-1.4-0.6l-9-9c-0.8-0.8-0.8-2,0-2.8  c0.4-0.4,0.9-0.6,1.4-0.6s1.1,0.2,1.5,0.6l5.7,5.6V98.2c0-1.1,0.9-2,2-2s2,0.9,2,2v17.7l5.5-5.6c0.4-0.4,0.9-0.6,1.4-0.6  s1,0.2,1.4,0.6C77.1,111.1,77.1,112.3,76.3,113.1z" fill="#2C3E50"/><path d="M111.6,108l-9-9c-0.8-0.8-2-0.8-2.8-0.1c-0.4,0.4-0.6,0.8-0.6,1.4s0.2,0.9,0.6,1.3l5.6,5.4H89.6v-8.6  c0-1.1-0.9-2-2-2s-2,0.9-2,2v10c0,0.1,0,0.2,0,0.3c0,0.1,0,0.2,0,0.3c0,1.1,0.9,2,2,2h17.7l-5.6,5.8c-0.4,0.4-0.6,1.1-0.6,1.6  s0.2,1,0.6,1.4c0.8,0.8,2,0.8,2.8,0l9-9c0.4-0.4,0.6-0.9,0.6-1.4S111.9,108.4,111.6,108z" fill="#2C3E50"/><path d="M19.5,108l9-9c0.8-0.8,2-0.8,2.8-0.1c0.4,0.4,0.6,0.8,0.6,1.4s-0.2,0.9-0.6,1.3l-5.6,5.4h15.7v-8.6  c0-1.1,0.9-2,2-2s2,0.9,2,2v10c0,0.1,0,0.2,0,0.3c0,0.1,0,0.2,0,0.3c0,1.1-0.9,2-2,2H25.8l5.6,5.8c0.4,0.4,0.6,1.1,0.6,1.6  s-0.2,1-0.6,1.4c-0.8,0.8-2,0.8-2.8,0l-9-9c-0.4-0.4-0.6-0.9-0.6-1.4S19.1,108.4,19.5,108z" fill="#2C3E50"/><path d="M89.6,32.6c-2.6,0-5,0.3-7.4,0.9c-1.8-11.9-11.9-21-24.3-21c-13.6,0-24.6,11-24.6,24.6  c0,1.8,0.2,3.6,0.6,5.4c-0.1,0-0.3,0-0.4,0C20,42.5,9,53.5,9,67C9,80.5,20,91.4,33.5,91.4h26.4l-6.9-4H33.5C22.2,87.4,13,78.2,13,67  c0-11.3,9.1-20.4,20.4-20.4c0,0,0,0,0,0c0.1,0,0.3,0,0.4,0l5.1,0.1l-1.1-5c-0.3-1.5-0.5-3-0.5-4.5c0-11.4,9.2-20.6,20.6-20.6  c10.1,0,18.9,7.5,20.3,17.6l0.1,0.9c-5,2.3-9.3,5.9-12.4,10.4l3.3,2.3c4.6-6.5,11.8-11.1,20.3-11.1v0c14,0,25.4,11.4,25.4,25.4  c0,14-11.4,25.4-25.4,25.4H78.8l-6.9,4h17.7c16.2,0,29.4-13.2,29.4-29.4C119,45.8,105.8,32.6,89.6,32.6z" fill="#3B97D3"/><path d="M79.9,65.9l-13-7.5c-0.6-0.4-1.4-0.4-2,0l-13,7.5c-0.6,0.4-1,1-1,1.7v15.1c0,0.7,0.4,1.4,1,1.7l13,7.5  c0.6,0.4,1.4,0.4,2,0l13-7.5c0.6-0.4,1-1,1-1.7V67.6C80.9,66.9,80.5,66.3,79.9,65.9z M76.9,81.5l-11,6.4l-11-6.4V68.8l11-6.4l11,6.4  V81.5z" fill="#2C3E50"/><path d="M74.8,70c-0.3-0.5-0.9-0.6-1.4-0.4L65.9,74l-7.6-4.4c-0.5-0.3-1.1-0.1-1.4,0.4c-0.3,0.5-0.1,1.1,0.4,1.4  l7.6,4.4v8.8c0,0.6,0.4,1,1,1s1-0.4,1-1v-8.8l7.6-4.4C74.9,71.1,75.1,70.5,74.8,70z" fill="#2C3E50"/></svg>