<?xml version="1.0" ?><!DOCTYPE svg  PUBLIC '-//W3C//DTD SVG 1.1//EN'  'http://www.w3.org/Graphics/SVG/1.1/DTD/svg11.dtd'><svg enable-background="new 0 0 700 700" height="700px" id="Layer_1" version="1.1" viewBox="0 0 700 700" width="700px" xml:space="preserve" xmlns="http://www.w3.org/2000/svg" xmlns:xlink="http://www.w3.org/1999/xlink"><circle cx="350" cy="350" fill="#CC334A" r="350"/><path d="M522.137,187.5h-94.653v-38.637c0-6.275-5.087-11.363-11.363-11.363H283.898  c-6.276,0-11.363,5.088-11.363,11.363V187.5h-92.671c-9.414,0-17.045,7.631-17.045,17.045s7.631,17.045,17.045,17.045h16.983v346.68  c0,9.413,7.631,17.046,17.045,17.046H486.19c9.413,0,17.045-7.633,17.045-17.046V221.59h18.9c9.413,0,17.045-7.632,17.045-17.045  S531.55,187.5,522.137,187.5z M295.262,160.227h109.494V187.5H295.262V160.227z M469.146,551.225H230.937V221.59h238.208v329.635  H469.146z" fill="#FFFFFF"/><path d="M351,528.1c-6.276,0-11.363-5.088-11.363-11.362V264.024c0-6.275,5.087-11.363,11.363-11.363  c6.275,0,11.363,5.088,11.363,11.363v252.712C362.363,523.012,357.275,528.1,351,528.1z" fill="#FFFFFF"/><path d="M414.336,520.263c-6.275,0-11.364-5.089-11.364-11.362v-237.04c0-6.276,5.089-11.364,11.364-11.364  s11.363,5.087,11.363,11.364V508.9C425.699,515.174,420.611,520.263,414.336,520.263z" fill="#FFFFFF"/><path d="M285.682,520.263c-6.276,0-11.364-5.089-11.364-11.362v-237.04c0-6.276,5.088-11.364,11.364-11.364  s11.363,5.087,11.363,11.364V508.9C297.045,515.174,291.958,520.263,285.682,520.263z" fill="#FFFFFF"/></svg>